<svg width="15" height="12" viewBox="0 0 15 12" fill="none" xmlns="http://www.w3.org/2000/svg">
<path d="M13.5 0H1.5C0.675 0 0 0.675 0 1.5V10.5C0 11.325 0.675 12 1.5 12H13.5C14.325 12 15 11.325 15 10.5V1.5C15 0.675 14.325 0 13.5 0ZM13.2 3.1875L8.295 6.255C7.8075 6.5625 7.1925 6.5625 6.705 6.255L1.8 3.1875C1.6125 3.0675 1.5 2.865 1.5 2.6475C1.5 2.145 2.0475 1.845 2.475 2.1075L7.5 5.25L12.525 2.1075C12.9525 1.845 13.5 2.145 13.5 2.6475C13.5 2.865 13.3875 3.0675 13.2 3.1875Z" fill="white"/>
</svg>
